<?xml version="1.0" encoding="UTF-8"?>
<svg version="1.1" xmlns="http://www.w3.org/2000/svg" width="200" height="200">
<path d="M0 0 C1.74888268 -0.00430527 1.74888268 -0.00430527 3.53309631 -0.00869751 C5.98976123 -0.01073179 8.44644258 -0.00524663 10.90307617 0.00732422 C14.64474052 0.02337139 18.38532233 0.00746027 22.12695312 -0.01171875 C24.52213778 -0.00973592 26.91732177 -0.00589143 29.3125 0 C30.42213608 -0.00607269 31.53177216 -0.01214539 32.67503357 -0.0184021 C40.75381063 0.05403808 47.93066975 1.00566049 54.53515625 5.9609375 C65.05073244 17.30126476 61.72265625 29.09621232 61.72265625 44.3984375 C31.03265625 44.3984375 0.34265625 44.3984375 -31.27734375 44.3984375 C-31.27734375 13.3984375 -31.27734375 13.3984375 -23.46484375 5.5859375 C-15.81490162 0.33597721 -9.03439949 -0.04935243 0 0 Z " fill="#000000" transform="translate(85.27734375,130.6015625)"/>
<path d="M0 0 C6.03488563 3.69752293 11.51476287 9.75002819 13.5625 16.5625 C14.56048164 25.75443613 14.23348473 33.91526301 8.5625 41.5625 C3.67057732 47.1430914 -1.93967445 50.0026047 -9.26171875 50.9140625 C-17.73833253 51.32649697 -24.11419074 49.38822083 -30.5078125 43.73046875 C-36.07076798 37.83001179 -38.51488904 32.20498974 -38.875 24.125 C-38.62685402 15.98130014 -35.32362891 9.19271026 -29.4375 3.5625 C-21.17279832 -2.49187449 -9.57165791 -4.07786609 0 0 Z " fill="#000000" transform="translate(112.4375,72.4375)"/>
<path d="M0 0 C1.1707608 0.0001133 1.1707608 0.0001133 2.36517334 0.00022888 C3.19760559 0.00539017 4.03003784 0.01055145 4.88769531 0.01586914 C5.74768127 0.01728409 6.60766724 0.01869904 7.49371338 0.02015686 C10.2344514 0.02574442 12.97510707 0.03829465 15.71582031 0.05102539 C17.57649621 0.056042 19.4371734 0.06060462 21.29785156 0.06469727 C25.85387277 0.07570978 30.40983259 0.09296588 34.96582031 0.11352539 C34.96582031 0.77352539 34.96582031 1.43352539 34.96582031 2.11352539 C34.22332031 2.75290039 33.48082031 3.39227539 32.71582031 4.05102539 C24.51964981 12.13077302 25.58910747 24.51764366 24.96582031 35.11352539 C10.44582031 35.11352539 -4.07417969 35.11352539 -19.03417969 35.11352539 C-19.03417969 10.24510434 -19.03417969 10.24510434 -13.25292969 4.27368164 C-12.40214844 3.7303418 -12.40214844 3.7303418 -11.53417969 3.17602539 C-10.96699219 2.79575195 -10.39980469 2.41547852 -9.81542969 2.02368164 C-6.61497011 0.38835909 -3.56237126 -0.01156614 0 0 Z " fill="#000000" transform="translate(22.0341796875,132.886474609375)"/>
<path d="M0 0 C5.26526855 -0.07457346 10.53022455 -0.12880098 15.79589844 -0.16479492 C17.58436443 -0.17981184 19.37279403 -0.20023158 21.16113281 -0.22631836 C23.74293031 -0.26301615 26.32423779 -0.27979745 28.90625 -0.29296875 C29.69616333 -0.30845261 30.48607666 -0.32393646 31.29992676 -0.33988953 C37.46861138 -0.34172827 43.20560849 0.61919964 48.05859375 4.75390625 C48.74115234 5.64916016 48.74115234 5.64916016 49.4375 6.5625 C49.91058594 7.16191406 50.38367188 7.76132813 50.87109375 8.37890625 C53.03276009 11.4830292 53.11827076 13.47472176 53.09765625 17.2265625 C53.09515869 18.15549316 53.09266113 19.08442383 53.09008789 20.04150391 C53.08098389 21.22405762 53.07187988 22.40661133 53.0625 23.625 C53.041875 27.37875 53.02125 31.1325 53 35 C38.48 35 23.96 35 9 35 C8.67 28.4 8.34 21.8 8 15 C5.52790293 8.53496013 5.52790293 8.53496013 1.3359375 3.37890625 C0 2 0 2 0 0 Z " fill="#000000" transform="translate(144,133)"/>
<path d="M0 0 C4.87048368 3.45074755 7.83293787 7.59886908 9.31640625 13.39453125 C10.30921183 20.19786211 9.13499435 25.15224476 5.4296875 30.8828125 C1.44651412 36.08488046 -2.87268559 38.32421824 -9.3203125 39.21484375 C-15.34201947 39.51002546 -20.74214233 38.22506783 -25.30078125 34.16796875 C-30.45407071 28.58790583 -32.79933977 23.72052366 -32.5625 15.94921875 C-31.80316989 9.8389843 -28.51474163 5.23746818 -24.3125 0.9375 C-16.50725058 -3.68193333 -8.12818616 -4.58078043 0 0 Z " fill="#000000" transform="translate(51.3125,88.0625)"/>
<path d="M0 0 C5.3451832 2.849976 9.48749269 7.73648746 11.765625 13.31640625 C12.67059244 20.68242026 12.26841512 27.23911109 7.765625 33.31640625 C3.26819521 37.81383604 -2.17749386 40.4120011 -8.546875 40.81640625 C-14.12099319 40.58772448 -18.75264222 38.58580294 -23.234375 35.31640625 C-27.989676 29.72321468 -29.61345266 24.20279123 -29.5078125 16.9453125 C-28.79004478 10.04448856 -25.14166848 5.71501807 -19.91796875 1.4453125 C-14.61272804 -2.11202988 -5.92664147 -1.81322073 0 0 Z " fill="#000000" transform="translate(169.234375,86.68359375)"/>
<path d="M0 0 C1.125 1.75 1.125 1.75 2 4 C0.9400494 7.82538563 -1.58170652 9.27412729 -4.90820312 11.1953125 C-5.85083008 11.71738281 -5.85083008 11.71738281 -6.8125 12.25 C-7.73772461 12.79527344 -7.73772461 12.79527344 -8.68164062 13.3515625 C-12.18588583 15.33270857 -14.95256955 16.78478005 -19 16 C-21 13 -21 13 -20.88671875 11.00390625 C-18.06728516 4.63223475 -6.6049221 -0.58278724 0 0 Z " fill="#000000" transform="translate(170,56)"/>
<path d="M0 0 C3.56237564 1.04192045 6.4604614 2.83166381 9.5546875 4.8203125 C10.14378906 5.18898438 10.73289062 5.55765625 11.33984375 5.9375 C15.61427601 8.62990101 15.61427601 8.62990101 16.8046875 9.8203125 C16.9921875 12.2578125 16.9921875 12.2578125 16.8046875 14.8203125 C16.1446875 15.4803125 15.4846875 16.1403125 14.8046875 16.8203125 C10.22445304 16.52375056 6.473983 14.28203112 2.5546875 12.0703125 C1.91789062 11.73515625 1.28109375 11.4 0.625 11.0546875 C-2.32988721 9.39492107 -3.97687985 8.40337287 -5.1875 5.171875 C-5.1953125 2.8203125 -5.1953125 2.8203125 -4.0703125 0.9453125 C-2.1953125 -0.1796875 -2.1953125 -0.1796875 0 0 Z " fill="#000000" transform="translate(31.1953125,55.1796875)"/>
<path d="M0 0 C3.66951312 0.73508825 4.90349654 1.87806544 7.23828125 4.828125 C7.94401676 5.95994008 8.63516098 7.10096569 9.3125 8.25 C10.00988281 9.36890625 10.70726563 10.4878125 11.42578125 11.640625 C13.06289164 15.13421045 13.42167321 17.19931882 13 21 C12 22 12 22 9.6875 22.375 C7 22 7 22 5.0625 20.125 C4.381875 19.09375 3.70125 18.0625 3 17 C2.47792969 16.21367188 1.95585938 15.42734375 1.41796875 14.6171875 C-3.71028293 6.57051625 -3.71028293 6.57051625 -3 2 C-2.01 1.34 -1.02 0.68 0 0 Z " fill="#000000" transform="translate(62,33)"/>
<path d="M0 0 C2 0.125 2 0.125 4 1 C5.2890625 2.71875 5.2890625 2.71875 6 5 C4.51371955 8.93567064 2.1845278 12.41261193 0 16 C-0.35835937 16.67675781 -0.71671875 17.35351562 -1.0859375 18.05078125 C-2 19.6875 -2 19.6875 -4 22 C-7.25 22.375 -7.25 22.375 -10 22 C-10.84619138 19.1994072 -11.41317522 17.00623248 -10.27099609 14.22460938 C-9.14954318 12.33832047 -7.95125816 10.54396648 -6.6875 8.75 C-6.27048828 8.12609375 -5.85347656 7.5021875 -5.42382812 6.859375 C-3.75348486 4.3871604 -2.11343781 2.11343781 0 0 Z " fill="#000000" transform="translate(132,33)"/>
<path d="M0 0 C1.58413359 1.58413359 1.12979629 3.20977785 1.1328125 5.40234375 C1.13410156 6.29244141 1.13539062 7.18253906 1.13671875 8.09960938 C1.13285156 9.03611328 1.12898438 9.97261719 1.125 10.9375 C1.12886719 11.87013672 1.13273437 12.80277344 1.13671875 13.76367188 C1.13542969 14.65505859 1.13414063 15.54644531 1.1328125 16.46484375 C1.13168457 17.285896 1.13055664 18.10694824 1.12939453 18.95288086 C1 21 1 21 0 23 C-1.99954746 23.04254356 -4.00041636 23.04080783 -6 23 C-7 22 -7 22 -7.11352539 19.86694336 C-7.10828857 18.95050049 -7.10305176 18.03405762 -7.09765625 17.08984375 C-7.09443359 16.10048828 -7.09121094 15.11113281 -7.08789062 14.09179688 C-7.07951172 13.05087891 -7.07113281 12.00996094 -7.0625 10.9375 C-7.05798828 9.89271484 -7.05347656 8.84792969 -7.04882812 7.77148438 C-7.03699913 5.1809334 -7.02051689 2.59049441 -7 0 C-4.31633121 -1.3418344 -2.84719317 -0.73004953 0 0 Z " fill="#000000" transform="translate(102,27)"/>
</svg>
