<?xml version="1.0" encoding="UTF-8"?>
<svg version="1.1" xmlns="http://www.w3.org/2000/svg" width="512" height="512">
<path d="M0 0 C2.48827341 0.86900561 4.97713588 1.73632619 7.46655273 2.60205078 C15.07575834 5.25627721 22.66359967 7.96891701 30.25 10.6875 C32.51640159 11.49636078 34.78283906 12.30512103 37.04931641 13.11376953 C70.6382321 25.12297992 104.00067339 37.77002298 137.25 50.6875 C138.22528656 51.06546722 139.20057312 51.44343445 140.20541382 51.83285522 C142.97701324 52.91015132 145.74495945 53.99627972 148.51171875 55.0859375 C149.32326416 55.40100754 150.13480957 55.71607758 150.97094727 56.04069519 C160.69541476 59.90229778 167.6935507 65.75684298 173.25 74.6875 C174.48486916 78.1229826 174.98884181 81.51061956 175.4375 85.125 C175.58566162 86.15375244 175.73382324 87.18250488 175.88647461 88.24243164 C176.37369909 91.72052387 176.81346569 95.20270362 177.25 98.6875 C177.4159668 99.93273437 177.58193359 101.17796875 177.75292969 102.4609375 C202.24853375 286.66052674 202.24853375 286.66052674 148.19921875 368.41015625 C146.26145907 370.87749 144.26338273 373.28140602 142.25 375.6875 C141.41597656 376.68918213 140.58195312 377.69086426 139.72265625 378.72290039 C132.83021119 386.92392667 125.58676422 394.66528809 117.98608398 402.2121582 C116.17778392 404.00965805 114.38054023 405.81772316 112.58398438 407.62695312 C105.77600299 414.44266563 98.79909412 420.69435588 91.25 426.6875 C90.09758004 427.67051376 88.95183702 428.66147346 87.81640625 429.6640625 C58.06865277 455.92810785 23.84962117 477.47341484 -10.75 496.6875 C-11.53052734 497.12835938 -12.31105469 497.56921875 -13.11523438 498.0234375 C-22.08763394 503.02582304 -30.38769839 505.45614415 -40.75 503.6875 C-47.51032188 501.47970401 -53.74843557 498.27653812 -59.9375 494.8125 C-60.78844238 494.3390918 -61.63938477 493.86568359 -62.51611328 493.37792969 C-80.87706894 483.06967405 -98.52142045 471.78513696 -115.75 459.6875 C-116.55840332 459.12144043 -117.36680664 458.55538086 -118.19970703 457.97216797 C-128.47096382 450.75240897 -138.3420338 443.14974544 -148.00146484 435.13183594 C-150.48089102 433.08376483 -152.99372046 431.07756309 -155.5 429.0625 C-160.41701795 425.0401575 -165.0838579 420.78910928 -169.73046875 416.4609375 C-171.973184 414.37779351 -174.26859764 412.36688487 -176.5859375 410.3671875 C-180.95618758 406.55674786 -185.09083827 402.53882073 -189.1875 398.4375 C-189.93394775 397.69024658 -190.68039551 396.94299316 -191.44946289 396.1730957 C-196.17186807 391.39814494 -200.58970722 386.55953175 -204.7265625 381.265625 C-206.91966679 378.47132224 -209.23705672 375.80989666 -211.5625 373.125 C-264.16739977 309.83600431 -257.22549582 218.51088679 -250.19580078 141.33740234 C-243.92543205 74.73694393 -243.92543205 74.73694393 -232.75 64.6875 C-219.09987869 53.59859548 -199.50300741 48.68309866 -183.3125 42.5625 C-182.03275991 42.07804512 -180.75303596 41.59354759 -179.47332764 41.10900879 C-36.4603487 -13.01679017 -36.4603487 -13.01679017 0 0 Z M34.25 147.6875 C32.59769913 149.52526321 30.99719521 151.40064772 29.3984375 153.28515625 C26.63374545 156.37658464 23.70030056 159.27428131 20.75 162.1875 C16.69506137 166.19631449 12.81019268 170.24617547 9.12109375 174.59765625 C6.10780378 177.96323064 2.8627901 181.09439608 -0.35009766 184.26806641 C-3.0742821 186.97178749 -5.70350194 189.69499731 -8.1875 192.625 C-11.87610166 196.9661307 -15.94243757 200.90584341 -19.98974609 204.90771484 C-23.45370123 208.34770488 -26.72117384 211.87294944 -29.87890625 215.59765625 C-32.39383472 218.40660558 -35.06835565 221.03858358 -37.75 223.6875 C-40.99296534 226.89093506 -44.17936119 230.07857187 -47.125 233.5625 C-50.52120203 237.57784878 -54.24883071 241.24208356 -57.9765625 244.9453125 C-58.62794189 245.59443604 -59.27932129 246.24355957 -59.95043945 246.91235352 C-61.54916071 248.50521329 -63.14904169 250.0968892 -64.75 251.6875 C-69.46755298 246.99547234 -74.18104611 242.29939388 -78.8918457 237.60058594 C-80.49216818 236.00526699 -82.0933902 234.41084986 -83.69555664 232.81738281 C-86.0090937 230.51608669 -88.31928899 228.21147929 -90.62890625 225.90625 C-91.33648575 225.20383179 -92.04406525 224.50141357 -92.77308655 223.77770996 C-96.73963373 219.81160325 -100.51380013 215.75347237 -104.13194275 211.46594238 C-111.20213938 203.69493345 -120.80633407 199.29505915 -131.2578125 198.66015625 C-141.60153014 198.77364532 -151.92304795 202.85864042 -159.625 209.8125 C-167.1881068 218.08001381 -170.1357901 228.07103094 -170.0234375 238.98046875 C-169.02964972 252.45339163 -160.32824593 261.45666989 -151.09375 270.50390625 C-150.38778687 271.20466782 -149.68182373 271.90542938 -148.95446777 272.62742615 C-146.7244323 274.83984976 -144.48776269 277.04539473 -142.25 279.25 C-140.01313209 281.45904617 -137.77783728 283.66962825 -135.54553223 285.88328552 C-134.1648354 287.25193819 -132.7814779 288.61791443 -131.39489746 289.98060608 C-127.55818153 293.77802033 -123.94952559 297.69860571 -120.42376709 301.78541565 C-117.91590734 304.63537059 -115.25152939 307.31055482 -112.5546875 309.98046875 C-111.72168625 310.81134758 -111.72168625 310.81134758 -110.87185669 311.65901184 C-109.12527741 313.4000771 -107.37523442 315.13761 -105.625 316.875 C-104.44637945 318.04859203 -103.26799238 319.2224186 -102.08984375 320.39648438 C-99.44552769 323.03090596 -96.79901732 325.66309712 -94.15005493 328.29284668 C-92.76432009 329.67323516 -91.3865054 331.06155962 -90.00878906 332.44995117 C-82.84758126 339.54381948 -74.7120508 343.23975146 -64.65234375 343.88671875 C-53.14591123 343.62107814 -43.4599708 338.74933497 -35.3125 330.75 C-32.04677099 327.23062213 -28.91060849 323.60004154 -25.79296875 319.94921875 C-23.05381383 316.91677 -20.15521824 314.06002022 -17.25 311.1875 C-13.19534466 307.17837701 -9.31021844 303.12885492 -5.62109375 298.77734375 C-2.60849309 295.41253925 0.63572042 292.28204812 3.84790039 289.10913086 C6.59341827 286.38425921 9.24277476 283.63717675 11.75 280.6875 C15.18483468 276.64651802 18.9296741 272.94943359 22.72460938 269.25 C25.47714797 266.54523577 28.07630631 263.76973884 30.59375 260.84375 C35.10029628 255.63398441 40.02207584 250.86662408 44.93359375 246.04296875 C48.29807892 242.71498794 51.5750592 239.37476995 54.65625 235.78125 C59.71963823 229.8961462 65.34035609 224.55371639 70.8671875 219.109375 C75.34485971 214.67253263 79.65180083 210.18109584 83.75292969 205.39404297 C85.67045745 203.20821142 87.74969602 201.23232899 89.875 199.25 C97.39405791 191.76936998 101.15896477 183.63032394 101.28125 172.9609375 C100.67923315 162.27513837 96.72384403 153.36064653 89.25 145.6875 C71.76017842 130.99376735 50.55778031 131.53356668 34.25 147.6875 Z " fill="#3CC83C" transform="translate(290.75,8.3125)"/>
</svg>
